PathFileType	4	(X/Y/Z)	31_2_rein_47_p0_0-124.trc
DataRate	CameraRate	NumFrames	NumMarkers	Units	OrigDataRate	OrigDataStartFrame	OrigNumFrames
38.0	38.0	5	27	m	38.0	93	125
Frame#	Time	RHip			RKnee			RAnkle			RBigToe			RSmallToe			RHeel			LHip			LKnee			LAnkle			LBigToe			LSmallToe			LHeel			Neck			Head			Nose			RShoulder			RElbow			RWrist			RThumb			RIndex			RPinky			LShoulder			LElbow			LWrist			LThumb			LIndex			LPinky			
		X1	Y1	Z1	X2	Y2	Z2	X3	Y3	Z3	X4	Y4	Z4	X5	Y5	Z5	X6	Y6	Z6	X7	Y7	Z7	X8	Y8	Z8	X9	Y9	Z9	X10	Y10	Z10	X11	Y11	Z11	X12	Y12	Z12	X13	Y13	Z13	X14	Y14	Z14	X15	Y15	Z15	X16	Y16	Z16	X17	Y17	Z17	X18	Y18	Z18	X19	Y19	Z19	X20	Y20	Z20	X21	Y21	Z21	X22	Y22	Z22	X23	Y23	Z23	X24	Y24	Z24	X25	Y25	Z25	X26	Y26	Z26	X27	Y27	Z27	
93	2.4473684210526314	0.21090406743024057	0.5382717238111403	0.21372332918372333	0.17987613772252614	0.8055335324176031	0.570899119908378	0.11860924258702568	1.0494938978865624	0.9215944909409928	0.060775981017663766	0.8019509835302242	1.0060871220318353	0.13177472731918466	0.8735239437212969	1.0103250082114719	0.1019837651884378	1.143404942409056	0.955120418226172	-0.00018924649829019582	0.5719742718496454	0.1912118788564135	-0.050436590287867324	0.8153929159425388	0.5355913716802009	-0.08011425771296603	1.0272175076298211	0.906813647364181	-0.07482217046521618	0.8454086051335657	0.9857960521006383	-0.12466924343398178	0.9050570439120035	0.976714642407869	-0.06251007905765901	1.1207298268635915	0.9389642866435643	0.1379061388125406	0.26416858125747517	-0.3859506105977768	0.09824633451622815	0.07155738009844502	-0.5986654486325556	0.08752440725912132	0.11114126104143086	-0.45439648333575255	0.29713087678002814	0.31021755113019633	-0.29685345926787565	0.3542996333034781	0.403660547471442	-0.037909891731158794	0.1479712569602196	0.3073800022445922	0.14282851720186146	0.07369978445628778	0.2877413727086916	0.1511838975585638	0.030183485686828024	0.2949467733876439	0.1990435938519223	0.044765011911565795	0.2705878293377977	0.22584075442726553	-0.023290475824118372	0.35360783893304915	-0.32015274046761266	-0.05468694030343454	0.4078198354390486	-0.04653077805261414	0.04246114188272604	0.32951196925719145	0.17565891861162106	0.09941379602378626	0.2826063593413694	0.19929800865802766	0.10806941917134455	0.32927563445239566	0.2767410522877782	0.10881670587020795	0.3449032001011076	0.3038804714918541
94	2.473684210526316	0.2110335352203727	0.5386259570986556	0.21315232273993948	0.17676320900759118	0.8222323144224557	0.5701527770113137	0.11864151043707104	1.0494991265089522	0.9215923258613855	0.06061322872479006	0.8020031713697554	1.006171461257542	0.131676248400006	0.8733087393103416	1.0103627299166895	0.10205084957855617	1.1433827444483118	0.9550301519833071	-0.004708942121709755	0.5723645760458885	0.19129065774360202	-0.05060969798297355	0.8150595915443587	0.5356169255108679	-0.08075907946815628	1.0233496948912162	0.9021670403838379	-0.07486147191514901	0.8448975581510957	0.9860309316019196	-0.12800092383766	0.8892005231692713	0.9751989847776568	-0.05831368953215364	1.1003167992498921	0.9376074177366239	0.13496944791176654	0.27582854312900806	-0.39073495240959766	0.09841747453683733	0.07099207995853672	-0.6020888275588866	0.08755364198399589	0.11110957255923824	-0.45447752400255936	0.2903095492615919	0.32259818495667697	-0.3014657327558093	0.3521554772976516	0.41690451582528254	-0.04128104264282248	0.13883867687017584	0.2954471252966297	0.13850834901212927	0.06254642409307326	0.3439266599302393	0.1463702862259986	0.02822135561134917	0.32518460575775165	0.19342185671893816	0.03849052286373403	0.2921219399069618	0.21899175119338496	-0.02328963746102655	0.35384018271178735	-0.32024803444826916	-0.05475207392066905	0.40751582054037244	-0.0465350799153024	0.050778804407631016	0.34526184329595766	0.18092489701814246	0.09976352332930356	0.3045885322078449	0.22174827435278488	0.11320057456611705	0.33690982404068553	0.28779135862782385	0.11350461858088425	0.34702180935594296	0.30833862976685783
95	2.5	0.20841235752007659	0.5529709825096764	0.21049585831487633	0.17962371436171398	0.8224307013915869	0.5702482202464937	0.11374147077706927	1.0487246619173385	0.9213203009602122	0.06069050392136247	0.8022622096070948	1.0062019218539533	0.13168327161489493	0.8732465650217837	1.0103936654829964	0.10199586155051801	1.1433520215697548	0.9551838344232012	-0.004821673613771706	0.5726301300389258	0.19114883196573199	-0.050665106335218986	0.8149124046164004	0.535664453098931	-0.08072559480448602	1.023208770479634	0.9021263437676339	-0.07485504522965311	0.8448341307629951	0.9860516992388425	-0.1279749500715614	0.8890165510008319	0.9751434006351523	-0.05826005279740793	1.10015885506423	0.9375439135582692	0.13488884520702826	0.27602639086196684	-0.3906822689302071	0.09839364157369906	0.07101647280363778	-0.602103141974165	0.08752480629649206	0.11112310410964653	-0.45461821440921263	0.29006691634617504	0.3229253024228757	-0.3014523989002984	0.3477559717668261	0.42045262526386473	-0.034487403180253104	0.12673472215039036	0.30055449900260506	0.1470359946217332	0.05947273100360534	0.29272070123098365	0.17610546658741102	0.02819035087229858	0.3311811882081998	0.20849206687093005	0.028535341330910076	0.3208500181212284	0.2190476836556337	-0.023341017137395007	0.3539853170851805	-0.32023101895606176	-0.05046262632360763	0.39468225341236535	-0.04318988136029028	0.05545923009102371	0.3481831855174007	0.18859380698658745	0.10966055563592507	0.3064635006124216	0.25112184809818994	0.12230666776434584	0.34904631283308474	0.29124126405842937	0.11388432275175717	0.3462924176466012	0.30949495816036776
96	2.526315789473684	0.20573637971446468	0.5686106539209778	0.20789996191875357	0.18060470596959347	0.8204202391396986	0.5664193624152707	0.11859661448568509	1.0495210858908421	0.9217107924636514	0.05971069100486942	0.8037784611369035	1.0101325716720335	0.13200784048492503	0.8731847833248078	1.010328126606266	0.10193820213060387	1.1433494353813742	0.9552946732184271	-0.008892585665992775	0.5837471318709874	0.18419537260625352	-0.05113809111915665	0.8112425742039993	0.5311301903671758	-0.08016214124007734	1.0271498850375873	0.9068696441845028	-0.07477997503402764	0.8448869347624834	0.9862977412655752	-0.12801220760625648	0.8891464867418595	0.9753145792500159	-0.05737990068915	1.1263870045822284	0.9400769629211999	0.1348603358634578	0.2761815102702872	-0.39064174785134653	0.0984102976768704	0.07118136940927318	-0.6021300638764939	0.0875925633491629	0.10925994124906718	-0.457356604014922	0.28493599246670454	0.3134585099885068	-0.29473332340926905	0.346010495803441	0.42461069082792363	-0.023874830209627343	0.12195844795289289	0.2912849714833991	0.1521155473129796	0.052041180604878834	0.2400604560669452	0.21059473913679796	0.051380927080138694	0.3450368210999809	0.24305648421030268	0.04329190815857884	0.34216290183432885	0.23065467985353566	-0.019849870469145662	0.3650813083187089	-0.32394214884360756	-0.0542571898115598	0.40777302774999075	-0.046634090303915875	0.059439219757499134	0.36016003020535176	0.1869306930849619	0.11434775146780146	0.32693185411303644	0.26624129161572063	0.12401879750501947	0.3558806543985376	0.302160980333001	0.11495925094114698	0.3458983143588688	0.30521652799162763
97	2.5526315789473686	0.20847570147662398	0.5539699539633145	0.21018958780501298	0.17941832092103632	0.8226415445043518	0.5707778019682804	0.11854974815428036	1.0494811115091642	0.9216718086018133	0.059779321323485894	0.8043493266396887	1.0101887652617754	0.1320780040959285	0.8738451619523215	1.0103131359662865	0.09724543375778964	1.1261876228436594	0.9535287469247383	-0.013532994041806547	0.5836061425302667	0.18416261786098262	-0.051332508623981046	0.811513650415683	0.5313635813968828	-0.08016914737557759	1.0271984088623842	0.9069575445615622	-0.07480808415846812	0.8449306455016546	0.9863662270960574	-0.1280821432855941	0.8892993945907702	0.9754094289475415	-0.0573189261286248	1.126322917102405	0.9400047304960905	0.13064557157703827	0.26543250585847405	-0.3868356050806657	0.09442692863212522	0.0700436015695546	-0.6018811187701857	0.08752807785679234	0.10786648343491065	-0.46048564223440197	0.2847947015166903	0.3133915330327399	-0.2946498225515404	0.33713232462374176	0.4157794276997318	-0.01762599189424612	0.1172998899245723	0.3093018567682059	0.16371022857087822	0.05794173540789115	0.2423364627722471	0.2317815914296622	0.06484182884083513	0.3111214740157426	0.2681645668048632	0.049245607995060475	0.32194671673681	0.24656449054444382	-0.02337893893996592	0.35544966052397914	-0.31674137004229774	-0.05031443479566591	0.3949835709089692	-0.04329718644011149	0.06672530745766035	0.3607455891738091	0.1911084939799137	0.12763592857553646	0.3172270420724444	0.2800217225346268	0.1334262165555897	0.3454327180729521	0.3110949266048866	0.11463119478518644	0.34607602498554213	0.30750224321233766
